# xmcd CD database file
#
# Track frame offsets:
#	150
#	19410
#	42257
#	59697
#	88422
#	103172
#	140795
#	153720
#	190475
#	227410
#
# Disc length: 4103 seconds
#
# Revision: 0
# Processed by: cddbd v1.5.1PL0 Copyright (c) Steve Scherf et al.
# Submitted via: CDex 1.51
#
DISCID=9610050a
DTITLE=芥川也寸志, 新交響楽団 - 芥川也寸志 管弦楽選集1
DYEAR=1986
DGENRE=Classical
TTITLE0=交響管絃楽のための音楽 I. Andantino
TTITLE1=交響管絃楽のための音楽 II. Allegro
TTITLE2=絃楽のための三楽章・トリプティーク I. Allegro
TTITLE3=絃楽のための三楽章・トリプティーク II. Andante
TTITLE4=絃楽のための三楽章・トリプティーク III. Presto
TTITLE5=交響曲第一番 I. Andante
TTITLE6=交響曲第一番 II. Allegro
TTITLE7=交響曲第一番 III. Chorale, Adagio
TTITLE8=交響曲第一番 IV. Allegro molto
TTITLE9=エローラ交響曲
EXTD=YEAR: 1986
EXTT0=
EXTT1=
EXTT2=
EXTT3=
EXTT4=
EXTT5=
EXTT6=
EXTT7=
EXTT8=
EXTT9=
PLAYORDER=
